<svg width="177" height="82" viewBox="0 0 177 82" fill="none" xmlns="http://www.w3.org/2000/svg">
<path d="M34.5307 28.2176C34.5307 31.6808 31.7198 34.4882 28.2524 34.4882C24.785 34.4882 21.9741 31.6808 21.9741 28.2176C21.9741 24.7545 24.785 21.9471 28.2524 21.9471C31.7198 21.9471 34.5307 24.7545 34.5307 28.2176Z" fill="#63CCCF"/>
<path d="M53.8486 28.2176C53.8486 31.6808 51.0917 34.4882 47.691 34.4882C44.2903 34.4882 41.5334 31.6808 41.5334 28.2176C41.5334 24.7545 44.2903 21.9471 47.691 21.9471C51.0917 21.9471 53.8486 24.7545 53.8486 28.2176Z" fill="#63CCCF"/>
<path d="M34.5307 46.6676C34.5307 50.0642 31.7198 52.8176 28.2524 52.8176C24.785 52.8176 21.9741 50.0642 21.9741 46.6676C21.9741 43.2711 24.785 40.5176 28.2524 40.5176C31.7198 40.5176 34.5307 43.2711 34.5307 46.6676Z" fill="#63CCCF"/>
<path d="M16.6617 46.1853C16.6617 48.3831 14.9319 50.1647 12.7981 50.1647C10.6643 50.1647 8.93452 48.3831 8.93452 46.1853C8.93452 43.9875 10.6643 42.2059 12.7981 42.2059C14.9319 42.2059 16.6617 43.9875 16.6617 46.1853Z" fill="#63CCCF"/>
<path d="M16.6617 62.1029C16.6617 64.3007 14.9319 66.0824 12.7981 66.0824C10.6643 66.0824 8.93452 64.3007 8.93452 62.1029C8.93452 59.9052 10.6643 58.1235 12.7981 58.1235C14.9319 58.1235 16.6617 59.9052 16.6617 62.1029Z" fill="#63CCCF"/>
<path d="M32.5989 62.1029C32.5989 64.3007 30.8151 66.0824 28.6146 66.0824C26.4141 66.0824 24.6303 64.3007 24.6303 62.1029C24.6303 59.9052 26.4141 58.1235 28.6146 58.1235C30.8151 58.1235 32.5989 59.9052 32.5989 62.1029Z" fill="#63CCCF"/>
<path d="M16.6617 11.9382C16.6617 14.136 14.9319 15.9176 12.7981 15.9176C10.6643 15.9176 8.93452 14.136 8.93452 11.9382C8.93452 9.74047 10.6643 7.95882 12.7981 7.95882C14.9319 7.95882 16.6617 9.74047 16.6617 11.9382Z" fill="#63CCCF"/>
<path d="M32.5989 11.9382C32.5989 14.136 30.8151 15.9176 28.6146 15.9176C26.4141 15.9176 24.6303 14.136 24.6303 11.9382C24.6303 9.74047 26.4141 7.95882 28.6146 7.95882C30.8151 7.95882 32.5989 9.74047 32.5989 11.9382Z" fill="#63CCCF"/>
<path d="M52.1583 11.9382C52.1583 14.136 50.3744 15.9176 48.1739 15.9176C45.9735 15.9176 44.1896 14.136 44.1896 11.9382C44.1896 9.74047 45.9735 7.95882 48.1739 7.95882C50.3744 7.95882 52.1583 9.74047 52.1583 11.9382Z" fill="#63CCCF"/>
<path d="M67.1296 11.9382C67.1296 14.136 65.3458 15.9176 63.1453 15.9176C60.9448 15.9176 59.161 14.136 59.161 11.9382C59.161 9.74047 60.9448 7.95882 63.1453 7.95882C65.3458 7.95882 67.1296 9.74047 67.1296 11.9382Z" fill="#63CCCF"/>
<path d="M4.34652 46.3059C4.34652 47.5047 3.37352 48.4765 2.17326 48.4765C0.973002 48.4765 0 47.5047 0 46.3059C0 45.1071 0.973002 44.1353 2.17326 44.1353C3.37352 44.1353 4.34652 45.1071 4.34652 46.3059Z" fill="#63CCCF"/>
<path d="M16.6617 28.5794C16.6617 30.7772 14.9319 32.5588 12.7981 32.5588C10.6643 32.5588 8.93452 30.7772 8.93452 28.5794C8.93452 26.3816 10.6643 24.6 12.7981 24.6C14.9319 24.6 16.6617 26.3816 16.6617 28.5794Z" fill="#63CCCF"/>
<path d="M4.34652 28.7C4.34652 29.8988 3.37352 30.8706 2.17326 30.8706C0.973002 30.8706 0 29.8988 0 28.7C0 27.5012 0.973002 26.5294 2.17326 26.5294C3.37352 26.5294 4.34652 27.5012 4.34652 28.7Z" fill="#63CCCF"/>
<path d="M30.9086 2.17059C30.9086 3.36937 29.9356 4.34118 28.7353 4.34118C27.5351 4.34118 26.5621 3.36937 26.5621 2.17059C26.5621 0.971805 27.5351 0 28.7353 0C29.9356 0 30.9086 0.971805 30.9086 2.17059Z" fill="#63CCCF"/>
<path d="M50.2265 2.17059C50.2265 3.36937 49.2535 4.34118 48.0532 4.34118C46.8529 4.34118 45.8799 3.36937 45.8799 2.17059C45.8799 0.971805 46.8529 0 48.0532 0C49.2535 0 50.2265 0.971805 50.2265 2.17059Z" fill="#63CCCF"/>
<path d="M30.9086 71.8706C30.9086 73.0694 29.9356 74.0412 28.7353 74.0412C27.5351 74.0412 26.5621 73.0694 26.5621 71.8706C26.5621 70.6718 27.5351 69.7 28.7353 69.7C29.9356 69.7 30.9086 70.6718 30.9086 71.8706Z" fill="#63CCCF"/>
<path d="M59.161 28.5794C59.161 30.7772 60.9448 32.5588 63.1453 32.5588C65.3458 32.5588 67.1296 30.7772 67.1296 28.5794C67.1296 26.3816 65.3458 24.6 63.1453 24.6C60.9448 24.6 59.161 26.3816 59.161 28.5794Z" fill="#63CCCF"/>
<path d="M69.7858 28.7C69.7858 29.8988 70.7588 30.8706 71.9591 30.8706C73.1593 30.8706 74.1323 29.8988 74.1323 28.7C74.1323 27.5012 73.1593 26.5294 71.9591 26.5294C70.7588 26.5294 69.7858 27.5012 69.7858 28.7Z" fill="#63CCCF"/>
<path d="M75.6525 43.6355L69.912 65.591H63.4187L59.9054 51.1417L56.2666 65.591H49.7733L44.1896 43.6355H49.9301L53.0984 59.6173L57.0195 43.6355H62.9168L66.6811 59.6173L69.8807 43.6355H75.6525Z" fill="#787879"/>
<path d="M94.8427 56.5836C94.8427 57.084 94.8113 57.6053 94.7486 58.1474H82.6088C82.6925 59.2316 83.0375 60.0656 83.644 60.6494C84.2714 61.2124 85.0347 61.4939 85.9339 61.4939C87.2723 61.4939 88.2029 60.9309 88.7257 59.805H94.4349C94.1421 60.9518 93.6088 61.9839 92.8351 62.9013C92.0822 63.8187 91.1307 64.538 89.9805 65.0593C88.8303 65.5806 87.5442 65.8412 86.1221 65.8412C84.4073 65.8412 82.8807 65.4763 81.5423 64.7465C80.2039 64.0168 79.1583 62.9743 78.4054 61.619C77.6525 60.2637 77.2761 58.6791 77.2761 56.8651C77.2761 55.0511 77.6421 53.4665 78.374 52.1112C79.1269 50.7559 80.1725 49.7134 81.5109 48.9837C82.8493 48.2539 84.3864 47.889 86.1221 47.889C87.816 47.889 89.3218 48.2435 90.6392 48.9524C91.9567 49.6613 92.9814 50.6725 93.7134 51.9861C94.4662 53.2997 94.8427 54.8322 94.8427 56.5836ZM89.3531 55.1762C89.3531 54.2588 89.0394 53.529 88.4121 52.9869C87.7847 52.4448 87.0005 52.1738 86.0594 52.1738C85.1602 52.1738 84.3968 52.4344 83.7695 52.9556C83.163 53.4769 82.7866 54.2171 82.6402 55.1762H89.3531Z" fill="#787879"/>
<path d="M103.037 50.61C103.538 49.7968 104.26 49.14 105.201 48.6396C106.142 48.1392 107.219 47.889 108.432 47.889C109.875 47.889 111.182 48.2539 112.353 48.9837C113.524 49.7134 114.444 50.7559 115.114 52.1112C115.804 53.4665 116.149 55.0407 116.149 56.8338C116.149 58.6269 115.804 60.2116 115.114 61.5877C114.444 62.943 113.524 63.9959 112.353 64.7465C111.182 65.4763 109.875 65.8412 108.432 65.8412C107.198 65.8412 106.121 65.6014 105.201 65.1218C104.281 64.6214 103.559 63.9646 103.037 63.1515V65.591H97.6725V42.4471H103.037V50.61ZM110.691 56.8338C110.691 55.4994 110.314 54.4569 109.561 53.7063C108.829 52.9348 107.92 52.5491 106.832 52.5491C105.766 52.5491 104.856 52.9348 104.103 53.7063C103.371 54.4777 103.005 55.5307 103.005 56.8651C103.005 58.1995 103.371 59.2525 104.103 60.0239C104.856 60.7954 105.766 61.1811 106.832 61.1811C107.899 61.1811 108.808 60.7954 109.561 60.0239C110.314 59.2316 110.691 58.1682 110.691 56.8338Z" fill="#787879"/>
<path d="M70.1554 79.4146L68.5237 76.5976H67.3069V79.4146H66.6467V72.6713H68.6274C69.3631 72.6713 69.9196 72.8514 70.2969 73.2115C70.6805 73.5717 70.8723 74.0444 70.8723 74.6296C70.8723 75.1184 70.7339 75.5365 70.4573 75.8838C70.1869 76.2246 69.7844 76.4465 69.2499 76.5494L70.9477 79.4146H70.1554ZM67.3069 76.0478H68.6368C69.1525 76.0478 69.5392 75.9191 69.797 75.6619C70.0611 75.4046 70.1932 75.0605 70.1932 74.6296C70.1932 74.1859 70.0674 73.845 69.8159 73.6071C69.5643 73.3627 69.1682 73.2405 68.6274 73.2405H67.3069V76.0478Z" fill="#787879"/>
<path d="M79.9075 76.5108C79.9075 76.7423 79.9012 76.9192 79.8886 77.0414H75.6158C75.6347 77.4402 75.729 77.781 75.8988 78.064C76.0686 78.347 76.2918 78.5624 76.5685 78.7104C76.8452 78.8518 77.147 78.9226 77.474 78.9226C77.9016 78.9226 78.26 78.8165 78.5492 78.6042C78.8448 78.392 79.0397 78.1058 79.134 77.7456H79.832C79.7063 78.2602 79.4359 78.6814 79.0209 79.0094C78.6121 79.331 78.0965 79.4918 77.474 79.4918C76.9898 79.4918 76.5559 79.3824 76.1723 79.1638C75.7888 78.9387 75.4869 78.6235 75.2669 78.2184C75.0531 77.8067 74.9462 77.3276 74.9462 76.7809C74.9462 76.2343 75.0531 75.7551 75.2669 75.3435C75.4807 74.9319 75.7793 74.6168 76.1629 74.3981C76.5465 74.1795 76.9835 74.0701 77.474 74.0701C77.9645 74.0701 78.3921 74.1795 78.7568 74.3981C79.1278 74.6168 79.4107 74.9126 79.6057 75.2856C79.8069 75.6522 79.9075 76.0606 79.9075 76.5108ZM79.2378 76.4915C79.2441 76.0992 79.1655 75.7648 79.002 75.4882C78.8448 75.2117 78.6279 75.0027 78.3512 74.8612C78.0745 74.7197 77.7727 74.6489 77.4457 74.6489C76.9552 74.6489 76.5371 74.8097 76.1912 75.1313C75.8454 75.4529 75.6536 75.9063 75.6158 76.4915H79.2378Z" fill="#787879"/>
<path d="M86.2088 74.7165H85.011V79.4146H84.3507V74.7165H83.6339V74.1473H84.3507V73.7807C84.3507 73.2083 84.4922 72.7871 84.7751 72.5169C85.0644 72.2468 85.5297 72.1118 86.1711 72.1118V72.6906C85.7435 72.6906 85.4417 72.7742 85.2656 72.9414C85.0958 73.1086 85.011 73.3884 85.011 73.7807V74.1473H86.2088V74.7165Z" fill="#787879"/>
<path d="M90.9739 75.0831C91.1186 74.7551 91.3386 74.501 91.6342 74.3209C91.936 74.1409 92.3039 74.0508 92.7377 74.0508V74.7551H92.5585C92.0806 74.7551 91.6971 74.8869 91.4078 75.1506C91.1186 75.4143 90.9739 75.8548 90.9739 76.4722V79.4146H90.3137V74.1473H90.9739V75.0831Z" fill="#787879"/>
<path d="M97.1266 73.1536C96.9945 73.1536 96.8813 73.1054 96.787 73.0089C96.6927 72.9125 96.6455 72.7935 96.6455 72.652C96.6455 72.5105 96.6927 72.3947 96.787 72.3047C96.8813 72.2082 96.9945 72.16 97.1266 72.16C97.2586 72.16 97.3718 72.2082 97.4661 72.3047C97.5605 72.3947 97.6076 72.5105 97.6076 72.652C97.6076 72.7935 97.5605 72.9125 97.4661 73.0089C97.3718 73.1054 97.2586 73.1536 97.1266 73.1536ZM97.4567 74.1473V79.4146H96.7965V74.1473H97.4567Z" fill="#787879"/>
<path d="M104.177 74.0701C104.661 74.0701 105.083 74.1859 105.441 74.4174C105.8 74.6489 106.057 74.9416 106.215 75.2953V74.1473H106.875V79.5496C106.875 80.032 106.771 80.4597 106.564 80.8327C106.362 81.2057 106.079 81.4919 105.715 81.6913C105.35 81.8971 104.935 82 104.47 82C103.809 82 103.259 81.8392 102.819 81.5176C102.385 81.1961 102.115 80.7587 102.008 80.2057H102.659C102.772 80.5722 102.986 80.8649 103.3 81.0835C103.621 81.3022 104.011 81.4115 104.47 81.4115C104.803 81.4115 105.102 81.3376 105.366 81.1897C105.63 81.0482 105.837 80.8359 105.988 80.5529C106.139 80.27 106.215 79.9355 106.215 79.5496V78.2473C106.051 78.6075 105.79 78.9065 105.432 79.1445C105.08 79.376 104.661 79.4918 104.177 79.4918C103.706 79.4918 103.281 79.3792 102.904 79.1541C102.533 78.929 102.241 78.6107 102.027 78.1991C101.819 77.7874 101.715 77.3115 101.715 76.7713C101.715 76.2311 101.819 75.7584 102.027 75.3532C102.241 74.9416 102.533 74.6264 102.904 74.4078C103.281 74.1827 103.706 74.0701 104.177 74.0701ZM106.215 76.7809C106.215 76.3565 106.13 75.9835 105.96 75.6619C105.79 75.3403 105.558 75.0927 105.262 74.9191C104.973 74.7454 104.652 74.6586 104.3 74.6586C103.935 74.6586 103.608 74.7422 103.319 74.9094C103.03 75.0766 102.8 75.321 102.63 75.6426C102.467 75.9577 102.385 76.334 102.385 76.7713C102.385 77.2022 102.467 77.5816 102.63 77.9097C102.8 78.2312 103.03 78.4788 103.319 78.6525C103.608 78.8197 103.935 78.9033 104.3 78.9033C104.652 78.9033 104.973 78.8165 105.262 78.6428C105.558 78.4692 105.79 78.2216 105.96 77.9C106.13 77.5784 106.215 77.2054 106.215 76.7809Z" fill="#787879"/>
<path d="M116.107 76.5108C116.107 76.7423 116.101 76.9192 116.088 77.0414H111.816C111.834 77.4402 111.929 77.781 112.098 78.064C112.268 78.347 112.491 78.5624 112.768 78.7104C113.045 78.8518 113.347 78.9226 113.674 78.9226C114.101 78.9226 114.46 78.8165 114.749 78.6042C115.044 78.392 115.239 78.1058 115.334 77.7456H116.032C115.906 78.2602 115.636 78.6814 115.221 79.0094C114.812 79.331 114.296 79.4918 113.674 79.4918C113.189 79.4918 112.756 79.3824 112.372 79.1638C111.988 78.9387 111.687 78.6235 111.467 78.2184C111.253 77.8067 111.146 77.3276 111.146 76.7809C111.146 76.2343 111.253 75.7551 111.467 75.3435C111.68 74.9319 111.979 74.6168 112.363 74.3981C112.746 74.1795 113.183 74.0701 113.674 74.0701C114.164 74.0701 114.592 74.1795 114.956 74.3981C115.327 74.6168 115.61 74.9126 115.805 75.2856C116.007 75.6522 116.107 76.0606 116.107 76.5108ZM115.437 76.4915C115.444 76.0992 115.365 75.7648 115.202 75.4882C115.044 75.2117 114.828 75.0027 114.551 74.8612C114.274 74.7197 113.972 74.6489 113.645 74.6489C113.155 74.6489 112.737 74.8097 112.391 75.1313C112.045 75.4529 111.853 75.9063 111.816 76.4915H115.437Z" fill="#787879"/>
<path d="M121.041 75.0831C121.185 74.7551 121.406 74.501 121.701 74.3209C122.003 74.1409 122.371 74.0508 122.805 74.0508V74.7551H122.625C122.148 74.7551 121.764 74.8869 121.475 75.1506C121.185 75.4143 121.041 75.8548 121.041 76.4722V79.4146H120.381V74.1473H121.041V75.0831Z" fill="#787879"/>
<path d="M126.562 76.7713C126.562 76.2311 126.665 75.7584 126.873 75.3532C127.087 74.9416 127.379 74.6264 127.75 74.4078C128.127 74.1827 128.552 74.0701 129.023 74.0701C129.514 74.0701 129.935 74.1859 130.287 74.4174C130.646 74.6489 130.903 74.9448 131.061 75.3049V74.1473H131.721V79.4146H131.061V78.2473C130.897 78.6075 130.636 78.9065 130.278 79.1445C129.926 79.376 129.504 79.4918 129.014 79.4918C128.549 79.4918 128.127 79.3792 127.75 79.1541C127.379 78.929 127.087 78.6107 126.873 78.1991C126.665 77.7874 126.562 77.3115 126.562 76.7713ZM131.061 76.7809C131.061 76.3565 130.976 75.9835 130.806 75.6619C130.636 75.3403 130.404 75.0927 130.108 74.9191C129.819 74.7454 129.498 74.6586 129.146 74.6586C128.781 74.6586 128.454 74.7422 128.165 74.9094C127.876 75.0766 127.646 75.321 127.476 75.6426C127.313 75.9577 127.231 76.334 127.231 76.7713C127.231 77.2022 127.313 77.5816 127.476 77.9097C127.646 78.2312 127.876 78.4788 128.165 78.6525C128.454 78.8197 128.781 78.9033 129.146 78.9033C129.498 78.9033 129.819 78.8165 130.108 78.6428C130.404 78.4692 130.636 78.2216 130.806 77.9C130.976 77.5784 131.061 77.2054 131.061 76.7809Z" fill="#787879"/>
<path d="M135.992 76.7713C135.992 76.2311 136.099 75.7584 136.313 75.3532C136.526 74.9416 136.819 74.6264 137.19 74.4078C137.567 74.1827 137.991 74.0701 138.463 74.0701C138.916 74.0701 139.325 74.1827 139.689 74.4078C140.054 74.6329 140.321 74.9255 140.491 75.2856V72.2758H141.151V79.4146H140.491V78.2376C140.334 78.6042 140.076 78.9065 139.718 79.1445C139.359 79.376 138.938 79.4918 138.454 79.4918C137.982 79.4918 137.558 79.3792 137.18 79.1541C136.809 78.929 136.517 78.6107 136.303 78.1991C136.096 77.7874 135.992 77.3115 135.992 76.7713ZM140.491 76.7809C140.491 76.3565 140.406 75.9835 140.236 75.6619C140.067 75.3403 139.834 75.0927 139.538 74.9191C139.249 74.7454 138.928 74.6586 138.576 74.6586C138.212 74.6586 137.885 74.7422 137.595 74.9094C137.306 75.0766 137.077 75.321 136.907 75.6426C136.743 75.9577 136.662 76.334 136.662 76.7713C136.662 77.2022 136.743 77.5816 136.907 77.9097C137.077 78.2312 137.306 78.4788 137.595 78.6525C137.885 78.8197 138.212 78.9033 138.576 78.9033C138.928 78.9033 139.249 78.8165 139.538 78.6428C139.834 78.4692 140.067 78.2216 140.236 77.9C140.406 77.5784 140.491 77.2054 140.491 76.7809Z" fill="#787879"/>
<path d="M147.978 79.4918C147.494 79.4918 147.057 79.3824 146.667 79.1638C146.284 78.9387 145.979 78.6235 145.752 78.2184C145.532 77.8067 145.422 77.3276 145.422 76.7809C145.422 76.2343 145.535 75.7584 145.762 75.3532C145.988 74.9416 146.296 74.6264 146.686 74.4078C147.076 74.1827 147.513 74.0701 147.997 74.0701C148.481 74.0701 148.918 74.1827 149.308 74.4078C149.704 74.6264 150.013 74.9416 150.233 75.3532C150.459 75.7584 150.572 76.2343 150.572 76.7809C150.572 77.3212 150.459 77.7971 150.233 78.2087C150.006 78.6203 149.695 78.9387 149.299 79.1638C148.903 79.3824 148.463 79.4918 147.978 79.4918ZM147.978 78.9033C148.318 78.9033 148.632 78.8261 148.922 78.6718C149.211 78.511 149.443 78.273 149.62 77.9579C149.802 77.6363 149.893 77.244 149.893 76.7809C149.893 76.3179 149.805 75.9288 149.629 75.6136C149.453 75.2921 149.22 75.0541 148.931 74.8998C148.642 74.739 148.327 74.6586 147.988 74.6586C147.648 74.6586 147.334 74.739 147.045 74.8998C146.755 75.0541 146.523 75.2921 146.347 75.6136C146.177 75.9288 146.092 76.3179 146.092 76.7809C146.092 77.244 146.177 77.6363 146.347 77.9579C146.523 78.273 146.752 78.511 147.035 78.6718C147.324 78.8261 147.639 78.9033 147.978 78.9033Z" fill="#787879"/>
<path d="M156.614 79.4918C156.023 79.4918 155.539 79.3535 155.162 79.0769C154.791 78.794 154.583 78.4113 154.539 77.9289H155.218C155.25 78.2248 155.385 78.466 155.624 78.6525C155.869 78.8326 156.196 78.9226 156.605 78.9226C156.963 78.9226 157.243 78.8358 157.444 78.6621C157.652 78.4885 157.756 78.273 157.756 78.0158C157.756 77.8357 157.699 77.6878 157.586 77.572C157.473 77.4562 157.328 77.3662 157.152 77.3019C156.982 77.2311 156.75 77.1572 156.454 77.08C156.071 76.9771 155.759 76.8742 155.52 76.7713C155.281 76.6684 155.077 76.5173 154.907 76.3179C154.744 76.1121 154.662 75.8387 154.662 75.4979C154.662 75.2406 154.737 75.0027 154.888 74.784C155.039 74.5653 155.253 74.3917 155.53 74.2631C155.806 74.1344 156.121 74.0701 156.473 74.0701C157.026 74.0701 157.473 74.2148 157.812 74.5042C158.152 74.7872 158.334 75.1795 158.359 75.6812H157.699C157.68 75.3725 157.561 75.1249 157.341 74.9384C157.127 74.7454 156.831 74.6489 156.454 74.6489C156.121 74.6489 155.85 74.7293 155.643 74.8901C155.435 75.0509 155.332 75.2503 155.332 75.4882C155.332 75.694 155.391 75.8645 155.511 75.9995C155.637 76.1282 155.791 76.2311 155.973 76.3082C156.155 76.379 156.401 76.4594 156.709 76.5494C157.08 76.6523 157.375 76.752 157.595 76.8485C157.815 76.9449 158.004 77.0864 158.161 77.2729C158.319 77.4594 158.4 77.7071 158.407 78.0158C158.407 78.2987 158.331 78.5528 158.18 78.7779C158.029 78.9966 157.819 79.1702 157.548 79.2988C157.278 79.4274 156.967 79.4918 156.614 79.4918Z" fill="#787879"/>
<path d="M134.357 43.6166V47.905H125.38V52.5377H132.097V56.7009H125.38V65.5908H120.012V43.6166H134.357Z" fill="#1A8BA4"/>
<path d="M142.546 51.0352C143.173 50.0753 143.958 49.324 144.9 48.7814C145.842 48.218 146.888 47.9363 148.039 47.9363V53.602H146.563C145.224 53.602 144.22 53.8941 143.55 54.4785C142.88 55.0419 142.546 56.0436 142.546 57.4835V65.5908H137.178V48.1241H142.546V51.0352Z" fill="#1A8BA4"/>
<path d="M153.304 46.3086C152.362 46.3086 151.588 46.0373 150.981 45.4947C150.395 44.9313 150.102 44.2426 150.102 43.4288C150.102 42.594 150.395 41.9054 150.981 41.3628C151.588 40.7994 152.362 40.5176 153.304 40.5176C154.225 40.5176 154.978 40.7994 155.564 41.3628C156.171 41.9054 156.474 42.594 156.474 43.4288C156.474 44.2426 156.171 44.9313 155.564 45.4947C154.978 46.0373 154.225 46.3086 153.304 46.3086ZM155.972 48.1241V65.5908H150.604V48.1241H155.972Z" fill="#1A8BA4"/>
<path d="M167.834 65.8412C166.118 65.8412 164.57 65.476 163.189 64.7456C161.829 64.0152 160.751 62.9718 159.956 61.6154C159.182 60.2589 158.794 58.673 158.794 56.8574C158.794 55.0628 159.192 53.4872 159.987 52.1308C160.782 50.7535 161.87 49.6996 163.252 48.9693C164.633 48.2389 166.181 47.8737 167.897 47.8737C169.613 47.8737 171.162 48.2389 172.543 48.9693C173.924 49.6996 175.012 50.7535 175.807 52.1308C176.602 53.4872 177 55.0628 177 56.8574C177 58.6521 176.592 60.2381 175.776 61.6154C174.981 62.9718 173.882 64.0152 172.48 64.7456C171.099 65.476 169.55 65.8412 167.834 65.8412ZM167.834 61.2084C168.86 61.2084 169.728 60.8328 170.44 60.0816C171.172 59.3303 171.538 58.2556 171.538 56.8574C171.538 55.4593 171.183 54.3846 170.471 53.6333C169.781 52.882 168.923 52.5064 167.897 52.5064C166.851 52.5064 165.982 52.882 165.292 53.6333C164.601 54.3637 164.256 55.4384 164.256 56.8574C164.256 58.2556 164.591 59.3303 165.26 60.0816C165.951 60.8328 166.809 61.2084 167.834 61.2084Z" fill="#1A8BA4"/>
</svg>
