<svg width="207" height="45" viewBox="0 0 207 45" fill="none" xmlns="http://www.w3.org/2000/svg">
<path d="M21.3361 1.33687C23.4167 1.33687 25.2753 2.63429 25.9877 4.584L30.1922 16.0903C30.3593 16.5476 30.9977 16.5741 31.2023 16.1321L33.3993 11.3859C33.8834 10.3401 34.9329 9.67039 36.0878 9.67039C38.2205 9.67039 39.6539 11.8511 38.8035 13.8018L35.5298 21.3104C34.7183 23.1717 32.8772 24.3756 30.8422 24.3756C28.7276 24.3756 26.8313 23.0769 26.0717 21.1085L22.0658 10.7269C21.8152 10.0775 20.894 10.0779 20.644 10.7275L16.63 21.1591C15.8845 23.0967 14.0188 24.3756 11.9381 24.3756C9.88096 24.3756 8.03154 23.1252 7.26973 21.2193L0.951393 5.4124C0.170687 3.45927 1.61312 1.33687 3.72123 1.33687C4.94566 1.33687 6.04564 2.08344 6.49501 3.21947L10.8369 14.1961C11.2292 15.1878 12.6394 15.1794 13.0197 14.183L16.7093 4.51782C17.4404 2.60263 19.2815 1.33687 21.3361 1.33687Z" fill="#787879"/>
<path d="M72.6781 21.6776C72.6781 22.6081 72.0835 23.4415 71.186 23.6955C69.8072 24.0859 68.4283 24.3797 67.0494 24.5768C65.1843 24.8563 63.2748 24.996 61.3209 24.996C58.8229 24.996 56.597 24.7277 54.6431 24.1912C52.7002 23.6434 51.0627 22.8554 49.7305 21.8269C48.3983 20.7985 47.3824 19.5409 46.683 18.0542C45.9836 16.5675 45.6339 14.8851 45.6339 13.0072C45.6339 11.2633 45.9836 9.64803 46.683 8.1613C47.3935 6.66339 48.3927 5.36669 49.6805 4.27121C50.9795 3.16454 52.5448 2.3038 54.3766 1.68899C56.2084 1.063 58.2512 0.75 60.5049 0.75C62.5809 0.75 64.4794 1.03505 66.2001 1.60515C67.932 2.16407 69.4142 2.99686 70.6465 4.10353C71.8899 5.21019 72.8502 6.57396 73.5274 8.19484C74.2157 9.81571 74.5599 11.6825 74.5599 13.7952C74.5599 14.6472 73.8674 15.3379 73.0132 15.3379H53.9795C52.9892 15.3379 52.2752 16.2954 52.8343 17.1107C52.8858 17.1858 52.9392 17.2599 52.9944 17.3332C53.4607 17.9368 54.088 18.451 54.8762 18.8758C55.6645 19.3006 56.6303 19.6304 57.7738 19.8651C58.9284 20.0999 60.305 20.2172 61.9037 20.2172C63.0361 20.2172 64.1463 20.1502 65.2343 20.016C66.3223 19.8707 67.3381 19.6863 68.2818 19.4627C69.2254 19.2279 70.0747 18.9708 70.8296 18.6914C71.6698 18.3849 72.6781 18.989 72.6781 19.8812V21.6776ZM66.7616 10.7771C67.6477 10.7771 68.3381 10.0017 67.9802 9.19332C67.9542 9.13452 67.927 9.07557 67.8987 9.01645C67.6212 8.40164 67.1771 7.8483 66.5665 7.35645C65.9559 6.8646 65.1566 6.46218 64.1685 6.14918C63.1804 5.82501 61.9481 5.66292 60.4716 5.66292C59.0838 5.66292 57.8848 5.83619 56.8746 6.18272C55.8643 6.52925 55.015 6.95962 54.3267 7.47383C53.6495 7.98803 53.1221 8.54137 52.7447 9.13382C52.2455 9.91726 52.8934 10.7771 53.824 10.7771H66.7616Z" fill="#787879"/>
<path d="M106.267 18.0207C106.267 18.915 106.15 19.6919 105.917 20.3514C105.684 21.0109 105.357 21.581 104.935 22.0617C104.524 22.5312 104.024 22.9168 103.436 23.2186C102.859 23.5093 102.215 23.744 101.504 23.9229C100.805 24.0906 100.055 24.2079 99.2561 24.275C98.4567 24.3421 97.6296 24.3756 96.7748 24.3756H83.7732C81.7843 24.3756 80.1719 22.7674 80.1719 20.7836V4.92887C80.1719 2.94506 81.7843 1.33687 83.7732 1.33687H96.475C97.13 1.33687 97.7851 1.36481 98.4401 1.42071C99.1062 1.4766 99.739 1.58279 100.338 1.73929C100.938 1.88461 101.493 2.09141 102.004 2.35969C102.526 2.62798 102.975 2.9801 103.353 3.41606C103.741 3.85202 104.041 4.3774 104.252 4.99222C104.474 5.60703 104.585 6.33363 104.585 7.17201C104.585 8.66992 104.219 9.86042 103.486 10.7435C103.265 11.0061 103.006 11.2423 102.709 11.4522C102.355 11.7023 102.459 12.8673 102.87 13.0072C103.669 13.2643 104.319 13.622 104.818 14.0803C105.318 14.5274 105.684 15.0808 105.917 15.7403C106.15 16.3886 106.267 17.1488 106.267 18.0207ZM98.5566 8.1613C98.5566 7.87066 98.5122 7.59679 98.4234 7.33969C98.3346 7.0714 98.1736 6.83666 97.9405 6.63545C97.7073 6.43423 97.3909 6.27215 96.9913 6.14918C96.5916 6.02622 96.0809 5.96474 95.4592 5.96474H87.8507C87.0219 5.96474 86.3501 6.63482 86.3501 7.46141V8.79412C86.3501 9.62071 87.0219 10.2908 87.8507 10.2908H95.4592C96.0809 10.2908 96.5916 10.2349 96.9913 10.1231C97.3909 10.0113 97.7073 9.86042 97.9405 9.67039C98.1736 9.48036 98.3346 9.25679 98.4234 8.99968C98.5122 8.7314 98.5566 8.45194 98.5566 8.1613ZM99.9888 17.2997C99.9888 16.7743 99.9 16.3551 99.7223 16.0421C99.5447 15.7179 99.2672 15.472 98.8897 15.3043C98.5122 15.1255 98.0238 15.0081 97.4242 14.9522C96.8247 14.8963 96.1087 14.8684 95.276 14.8684H87.8507C87.0219 14.8684 86.3501 15.5384 86.3501 16.365V18.2511C86.3501 19.0777 87.0219 19.7477 87.8507 19.7477H95.276C96.1087 19.7477 96.8247 19.7198 97.4242 19.6639C98.0238 19.608 98.5122 19.4906 98.8897 19.3118C99.2672 19.1329 99.5447 18.887 99.7223 18.574C99.9 18.2498 99.9888 17.8251 99.9888 17.2997Z" fill="#787879"/>
<path d="M119.591 6.24979C118.762 6.24979 118.09 6.91987 118.09 7.74646V9.41451C118.09 9.87994 118.469 10.2573 118.935 10.2573H130.499C131.859 10.2573 132.961 11.3571 132.961 12.7137C132.961 14.0704 131.859 15.1702 130.499 15.1702H118.723C118.373 15.1702 118.09 15.4525 118.09 15.8007V21.2945C118.09 22.9962 116.707 24.3756 115.001 24.3756C113.295 24.3756 111.912 22.9962 111.912 21.2945V5.7252C111.912 3.30159 113.882 1.33687 116.312 1.33687H131.315C132.675 1.33687 133.777 2.43666 133.777 3.79333C133.777 5.14999 132.675 6.24979 131.315 6.24979H119.591Z" fill="#787879"/>
<path d="M167.125 24.3756C165.419 24.3756 164.036 22.9962 164.036 21.2945V4.41795C164.036 2.71632 165.419 1.33687 167.125 1.33687C168.831 1.33687 170.214 2.71632 170.214 4.41795V21.2945C170.214 22.9962 168.831 24.3756 167.125 24.3756Z" fill="#787879"/>
<path d="M207 12.873C207 14.8516 206.639 16.601 205.918 18.1213C205.196 19.6304 204.163 20.8935 202.82 21.9108C201.477 22.928 199.845 23.6993 197.924 24.2247C196.015 24.7389 193.866 24.996 191.48 24.996C189.093 24.996 186.933 24.7389 185.002 24.2247C183.081 23.6993 181.443 22.928 180.089 21.9108C178.735 20.8935 177.691 19.6304 176.958 18.1213C176.226 16.601 175.859 14.8516 175.859 12.873C175.859 10.8944 176.226 9.15059 176.958 7.6415C177.691 6.12124 178.735 4.85248 180.089 3.83525C181.443 2.81801 183.081 2.05229 185.002 1.53808C186.933 1.01269 189.093 0.75 191.48 0.75C193.866 0.75 196.015 1.01269 197.924 1.53808C199.845 2.05229 201.477 2.81801 202.82 3.83525C204.163 4.85248 205.196 6.12124 205.918 7.6415C206.639 9.15059 207 10.8944 207 12.873ZM200.755 12.873C200.755 12.0123 200.616 11.1571 200.339 10.3076C200.072 9.44682 199.589 8.67551 198.89 7.99362C198.202 7.31174 197.258 6.75841 196.059 6.33363C194.86 5.90885 193.334 5.69646 191.48 5.69646C190.236 5.69646 189.143 5.79706 188.199 5.99827C187.255 6.18831 186.439 6.45659 185.751 6.80312C185.063 7.14965 184.485 7.55767 184.019 8.02716C183.553 8.48548 183.181 8.98292 182.903 9.51948C182.626 10.0449 182.426 10.5982 182.304 11.1795C182.193 11.7496 182.137 12.3141 182.137 12.873C182.137 13.4431 182.193 14.0188 182.304 14.6001C182.426 15.1814 182.626 15.7403 182.903 16.2768C183.181 16.8022 183.553 17.2941 184.019 17.7524C184.485 18.2107 185.063 18.6131 185.751 18.9597C186.439 19.295 187.255 19.5633 188.199 19.7645C189.143 19.9545 190.236 20.0496 191.48 20.0496C193.334 20.0496 194.86 19.8372 196.059 19.4124C197.258 18.9876 198.202 18.4343 198.89 17.7524C199.589 17.0705 200.072 16.3048 200.339 15.4552C200.616 14.5945 200.755 13.7337 200.755 12.873Z" fill="#787879"/>
<path d="M54.8073 41.4786L52.87 38.2382H51.4254V41.4786H50.6415V33.7217H52.9931C53.8666 33.7217 54.5273 33.9288 54.9752 34.3431C55.4306 34.7574 55.6583 35.3012 55.6583 35.9744C55.6583 36.5367 55.4941 37.0175 55.1656 37.417C54.8446 37.8092 54.3668 38.0644 53.7322 38.1828L55.7479 41.4786H54.8073ZM51.4254 37.6057H53.0043C53.6165 37.6057 54.0756 37.4577 54.3817 37.1618C54.6953 36.8659 54.852 36.4701 54.852 35.9744C54.852 35.4639 54.7027 35.0718 54.4041 34.7981C54.1055 34.517 53.6352 34.3764 52.9931 34.3764H51.4254V37.6057Z" fill="#787879"/>
<path d="M66.3853 38.1384C66.3853 38.4047 66.3778 38.6082 66.3629 38.7487H61.2901C61.3125 39.2074 61.4244 39.5995 61.626 39.925C61.8276 40.2505 62.0926 40.4984 62.4211 40.6685C62.7496 40.8313 63.1079 40.9127 63.4961 40.9127C64.0038 40.9127 64.4293 40.7906 64.7727 40.5465C65.1236 40.3023 65.355 39.9731 65.467 39.5588H66.2957C66.1464 40.1507 65.8253 40.6352 65.3326 41.0126C64.8474 41.3825 64.2352 41.5674 63.4961 41.5674C62.9213 41.5674 62.4062 41.4416 61.9508 41.1901C61.4954 40.9312 61.137 40.5687 60.8757 40.1026C60.6219 39.6291 60.495 39.0779 60.495 38.4491C60.495 37.8202 60.6219 37.2691 60.8757 36.7956C61.1296 36.3221 61.4842 35.9596 61.9396 35.7081C62.395 35.4565 62.9138 35.3308 63.4961 35.3308C64.0784 35.3308 64.5861 35.4565 65.0191 35.7081C65.4595 35.9596 65.7955 36.2999 66.0269 36.729C66.2658 37.1507 66.3853 37.6205 66.3853 38.1384ZM65.5902 38.1162C65.5976 37.6649 65.5043 37.2802 65.3102 36.9621C65.1236 36.6439 64.866 36.4035 64.5375 36.2407C64.2091 36.078 63.8507 35.9966 63.4625 35.9966C62.8802 35.9966 62.3838 36.1816 61.9732 36.5515C61.5625 36.9214 61.3349 37.4429 61.2901 38.1162H65.5902Z" fill="#787879"/>
<path d="M73.8665 36.0743H72.4443V41.4786H71.6604V36.0743H70.8093V35.4195H71.6604V34.9978C71.6604 34.3394 71.8284 33.8548 72.1643 33.5441C72.5077 33.2334 73.0602 33.078 73.8217 33.078V33.7439C73.314 33.7439 72.9557 33.84 72.7466 34.0324C72.5451 34.2247 72.4443 34.5466 72.4443 34.9978V35.4195H73.8665V36.0743Z" fill="#787879"/>
<path d="M79.5238 36.496C79.6955 36.1187 79.9567 35.8264 80.3076 35.6193C80.666 35.4121 81.1027 35.3086 81.6178 35.3086V36.1187H81.405C80.8377 36.1187 80.3823 36.2703 80.0389 36.5737C79.6955 36.877 79.5238 37.3838 79.5238 38.094V41.4786H78.7399V35.4195H79.5238V36.496Z" fill="#787879"/>
<path d="M86.8284 34.2765C86.6716 34.2765 86.5372 34.221 86.4253 34.1101C86.3133 33.9991 86.2573 33.8622 86.2573 33.6995C86.2573 33.5367 86.3133 33.4035 86.4253 33.3C86.5372 33.189 86.6716 33.1335 86.8284 33.1335C86.9852 33.1335 87.1196 33.189 87.2315 33.3C87.3435 33.4035 87.3995 33.5367 87.3995 33.6995C87.3995 33.8622 87.3435 33.9991 87.2315 34.1101C87.1196 34.221 86.9852 34.2765 86.8284 34.2765ZM87.2203 35.4195V41.4786H86.4365V35.4195H87.2203Z" fill="#787879"/>
<path d="M95.1992 35.3308C95.7741 35.3308 96.2743 35.4639 96.6998 35.7303C97.1253 35.9966 97.4314 36.3332 97.6181 36.7401V35.4195H98.4019V41.634C98.4019 42.1889 98.2788 42.6808 98.0324 43.1099C97.7935 43.539 97.4576 43.8682 97.0246 44.0976C96.5916 44.3343 96.0988 44.4527 95.5464 44.4527C94.7625 44.4527 94.1093 44.2677 93.5867 43.8978C93.0716 43.5279 92.7506 43.0249 92.6237 42.3886H93.3963C93.5307 42.8103 93.7845 43.1469 94.1578 43.3985C94.5386 43.65 95.0014 43.7758 95.5464 43.7758C95.9421 43.7758 96.2967 43.6907 96.6102 43.5205C96.9238 43.3578 97.1701 43.1136 97.3493 42.7881C97.5285 42.4626 97.6181 42.0779 97.6181 41.634V40.1359C97.424 40.5502 97.1142 40.8942 96.6886 41.1679C96.2706 41.4342 95.7741 41.5674 95.1992 41.5674C94.6393 41.5674 94.1354 41.438 93.6875 41.179C93.247 40.9201 92.8999 40.5539 92.6461 40.0804C92.3997 39.6069 92.2765 39.0594 92.2765 38.438C92.2765 37.8166 92.3997 37.2728 92.6461 36.8067C92.8999 36.3332 93.247 35.9707 93.6875 35.7192C94.1354 35.4602 94.6393 35.3308 95.1992 35.3308ZM97.6181 38.4491C97.6181 37.9608 97.5173 37.5317 97.3157 37.1618C97.1142 36.7919 96.8379 36.5071 96.487 36.3073C96.1436 36.1076 95.7629 36.0077 95.3448 36.0077C94.9118 36.0077 94.5236 36.1039 94.1802 36.2962C93.8368 36.4886 93.5643 36.7697 93.3627 37.1396C93.1686 37.5021 93.0716 37.9349 93.0716 38.438C93.0716 38.9337 93.1686 39.3702 93.3627 39.7475C93.5643 40.1174 93.8368 40.4022 94.1802 40.602C94.5236 40.7943 94.9118 40.8905 95.3448 40.8905C95.7629 40.8905 96.1436 40.7906 96.487 40.5909C96.8379 40.3911 97.1142 40.1063 97.3157 39.7364C97.5173 39.3665 97.6181 38.9374 97.6181 38.4491Z" fill="#787879"/>
<path d="M109.363 38.1384C109.363 38.4047 109.355 38.6082 109.34 38.7487H104.268C104.29 39.2074 104.402 39.5995 104.604 39.925C104.805 40.2505 105.07 40.4984 105.399 40.6685C105.727 40.8313 106.085 40.9127 106.474 40.9127C106.981 40.9127 107.407 40.7906 107.75 40.5465C108.101 40.3023 108.333 39.9731 108.445 39.5588H109.273C109.124 40.1507 108.803 40.6352 108.31 41.0126C107.825 41.3825 107.213 41.5674 106.474 41.5674C105.899 41.5674 105.384 41.4416 104.928 41.1901C104.473 40.9312 104.115 40.5687 103.853 40.1026C103.599 39.6291 103.473 39.0779 103.473 38.4491C103.473 37.8202 103.599 37.2691 103.853 36.7956C104.107 36.3221 104.462 35.9596 104.917 35.7081C105.373 35.4565 105.891 35.3308 106.474 35.3308C107.056 35.3308 107.564 35.4565 107.997 35.7081C108.437 35.9596 108.773 36.2999 109.004 36.729C109.243 37.1507 109.363 37.6205 109.363 38.1384ZM108.568 38.1162C108.575 37.6649 108.482 37.2802 108.288 36.9621C108.101 36.6439 107.844 36.4035 107.515 36.2407C107.187 36.078 106.828 35.9966 106.44 35.9966C105.858 35.9966 105.361 36.1816 104.951 36.5515C104.54 36.9214 104.312 37.4429 104.268 38.1162H108.568Z" fill="#787879"/>
<path d="M115.22 36.496C115.392 36.1187 115.653 35.8264 116.004 35.6193C116.363 35.4121 116.799 35.3086 117.314 35.3086V36.1187H117.102C116.534 36.1187 116.079 36.2703 115.735 36.5737C115.392 36.877 115.22 37.3838 115.22 38.094V41.4786H114.436V35.4195H115.22V36.496Z" fill="#787879"/>
<path d="M121.775 38.438C121.775 37.8166 121.898 37.2728 122.144 36.8067C122.398 36.3332 122.745 35.9707 123.186 35.7192C123.634 35.4602 124.137 35.3308 124.697 35.3308C125.28 35.3308 125.78 35.4639 126.198 35.7303C126.623 35.9966 126.93 36.3369 127.116 36.7512V35.4195H127.9V41.4786H127.116V40.1359C126.922 40.5502 126.612 40.8942 126.187 41.1679C125.769 41.4342 125.269 41.5674 124.686 41.5674C124.134 41.5674 123.634 41.438 123.186 41.179C122.745 40.9201 122.398 40.5539 122.144 40.0804C121.898 39.6069 121.775 39.0594 121.775 38.438ZM127.116 38.4491C127.116 37.9608 127.015 37.5317 126.814 37.1618C126.612 36.7919 126.336 36.5071 125.985 36.3073C125.642 36.1076 125.261 36.0077 124.843 36.0077C124.41 36.0077 124.022 36.1039 123.678 36.2962C123.335 36.4886 123.062 36.7697 122.861 37.1396C122.667 37.5021 122.57 37.9349 122.57 38.438C122.57 38.9337 122.667 39.3702 122.861 39.7475C123.062 40.1174 123.335 40.4022 123.678 40.602C124.022 40.7943 124.41 40.8905 124.843 40.8905C125.261 40.8905 125.642 40.7906 125.985 40.5909C126.336 40.3911 126.612 40.1063 126.814 39.7364C127.015 39.3665 127.116 38.9374 127.116 38.4491Z" fill="#787879"/>
<path d="M132.971 38.438C132.971 37.8166 133.098 37.2728 133.351 36.8067C133.605 36.3332 133.952 35.9707 134.393 35.7192C134.841 35.4602 135.345 35.3308 135.905 35.3308C136.442 35.3308 136.927 35.4602 137.36 35.7192C137.793 35.9781 138.111 36.3147 138.312 36.729V33.2667H139.096V41.4786H138.312V40.1248C138.126 40.5465 137.82 40.8942 137.394 41.1679C136.968 41.4342 136.468 41.5674 135.893 41.5674C135.334 41.5674 134.83 41.438 134.382 41.179C133.941 40.9201 133.594 40.5539 133.34 40.0804C133.094 39.6069 132.971 39.0594 132.971 38.438ZM138.312 38.4491C138.312 37.9608 138.211 37.5317 138.01 37.1618C137.808 36.7919 137.532 36.5071 137.181 36.3073C136.838 36.1076 136.457 36.0077 136.039 36.0077C135.606 36.0077 135.218 36.1039 134.874 36.2962C134.531 36.4886 134.258 36.7697 134.057 37.1396C133.863 37.5021 133.766 37.9349 133.766 38.438C133.766 38.9337 133.863 39.3702 134.057 39.7475C134.258 40.1174 134.531 40.4022 134.874 40.602C135.218 40.7943 135.606 40.8905 136.039 40.8905C136.457 40.8905 136.838 40.7906 137.181 40.5909C137.532 40.3911 137.808 40.1063 138.01 39.7364C138.211 39.3665 138.312 38.9374 138.312 38.4491Z" fill="#787879"/>
<path d="M147.201 41.5674C146.627 41.5674 146.108 41.4416 145.645 41.1901C145.189 40.9312 144.827 40.5687 144.559 40.1026C144.297 39.6291 144.167 39.0779 144.167 38.4491C144.167 37.8202 144.301 37.2728 144.57 36.8067C144.839 36.3332 145.204 35.9707 145.667 35.7192C146.13 35.4602 146.649 35.3308 147.224 35.3308C147.799 35.3308 148.318 35.4602 148.78 35.7192C149.251 35.9707 149.617 36.3332 149.878 36.8067C150.147 37.2728 150.281 37.8202 150.281 38.4491C150.281 39.0705 150.147 39.618 149.878 40.0915C149.609 40.565 149.24 40.9312 148.769 41.1901C148.299 41.4416 147.776 41.5674 147.201 41.5674ZM147.201 40.8905C147.605 40.8905 147.978 40.8017 148.321 40.6242C148.665 40.4392 148.941 40.1655 149.15 39.803C149.366 39.433 149.475 38.9818 149.475 38.4491C149.475 37.9164 149.37 37.4688 149.161 37.1063C148.952 36.7364 148.676 36.4627 148.332 36.2851C147.989 36.1002 147.616 36.0077 147.213 36.0077C146.81 36.0077 146.436 36.1002 146.093 36.2851C145.749 36.4627 145.473 36.7364 145.264 37.1063C145.063 37.4688 144.962 37.9164 144.962 38.4491C144.962 38.9818 145.063 39.433 145.264 39.803C145.473 40.1655 145.746 40.4392 146.082 40.6242C146.425 40.8017 146.798 40.8905 147.201 40.8905Z" fill="#787879"/>
<path d="M157.455 41.5674C156.753 41.5674 156.178 41.4084 155.73 41.0902C155.29 40.7647 155.043 40.3245 154.991 39.7697H155.797C155.835 40.11 155.995 40.3874 156.279 40.602C156.57 40.8091 156.958 40.9127 157.443 40.9127C157.869 40.9127 158.201 40.8128 158.44 40.6131C158.686 40.4133 158.81 40.1655 158.81 39.8695C158.81 39.6624 158.742 39.4922 158.608 39.3591C158.474 39.2259 158.302 39.1223 158.093 39.0483C157.891 38.967 157.615 38.8819 157.264 38.7931C156.809 38.6747 156.439 38.5564 156.156 38.438C155.872 38.3196 155.629 38.1458 155.428 37.9164C155.234 37.6797 155.137 37.3653 155.137 36.9732C155.137 36.6772 155.226 36.4035 155.405 36.152C155.584 35.9004 155.838 35.7007 156.167 35.5527C156.495 35.4047 156.869 35.3308 157.287 35.3308C157.944 35.3308 158.474 35.4972 158.877 35.8301C159.28 36.1557 159.496 36.6069 159.526 37.184H158.742C158.72 36.8289 158.578 36.5441 158.317 36.3295C158.063 36.1076 157.712 35.9966 157.264 35.9966C156.869 35.9966 156.548 36.0891 156.301 36.274C156.055 36.459 155.932 36.6883 155.932 36.9621C155.932 37.1988 156.003 37.3949 156.144 37.5502C156.294 37.6982 156.477 37.8166 156.693 37.9053C156.91 37.9867 157.201 38.0792 157.567 38.1828C158.007 38.3011 158.358 38.4158 158.619 38.5268C158.88 38.6377 159.104 38.8005 159.291 39.0151C159.478 39.2296 159.575 39.5144 159.582 39.8695C159.582 40.1951 159.493 40.4873 159.313 40.7462C159.134 40.9978 158.884 41.1975 158.563 41.3455C158.242 41.4934 157.873 41.5674 157.455 41.5674Z" fill="#787879"/>
</svg>
