<svg width="65" height="65" viewBox="0 0 65 65" fill="none" xmlns="http://www.w3.org/2000/svg">
<path d="M30.2265 24.7308C30.2265 27.766 27.766 30.2265 24.7308 30.2265C21.6956 30.2265 19.2351 27.766 19.2351 24.7308C19.2351 21.6956 21.6956 19.2351 24.7308 19.2351C27.766 19.2351 30.2265 21.6956 30.2265 24.7308Z" fill="#63CCCF"/>
<path d="M47.1365 24.7308C47.1365 27.766 44.7233 30.2265 41.7464 30.2265C38.7696 30.2265 36.3564 27.766 36.3564 24.7308C36.3564 21.6956 38.7696 19.2351 41.7464 19.2351C44.7233 19.2351 47.1365 21.6956 47.1365 24.7308Z" fill="#63CCCF"/>
<path d="M30.2265 40.9009C30.2265 43.8778 27.766 46.291 24.7308 46.291C21.6956 46.291 19.2351 43.8778 19.2351 40.9009C19.2351 37.9241 21.6956 35.5109 24.7308 35.5109C27.766 35.5109 30.2265 37.9241 30.2265 40.9009Z" fill="#63CCCF"/>
<path d="M14.5848 40.4782C14.5848 42.4044 13.0707 43.9658 11.2028 43.9658C9.33501 43.9658 7.82085 42.4044 7.82085 40.4782C7.82085 38.552 9.33501 36.9905 11.2028 36.9905C13.0707 36.9905 14.5848 38.552 14.5848 40.4782Z" fill="#63CCCF"/>
<path d="M14.5848 54.4289C14.5848 56.3551 13.0707 57.9165 11.2028 57.9165C9.33501 57.9165 7.82085 56.3551 7.82085 54.4289C7.82085 52.5027 9.33501 50.9412 11.2028 50.9412C13.0707 50.9412 14.5848 52.5027 14.5848 54.4289Z" fill="#63CCCF"/>
<path d="M28.5355 54.4289C28.5355 56.3551 26.974 57.9165 25.0478 57.9165C23.1217 57.9165 21.5602 56.3551 21.5602 54.4289C21.5602 52.5027 23.1217 50.9412 25.0478 50.9412C26.974 50.9412 28.5355 52.5027 28.5355 54.4289Z" fill="#63CCCF"/>
<path d="M14.5848 10.463C14.5848 12.3892 13.0707 13.9507 11.2028 13.9507C9.33501 13.9507 7.82085 12.3892 7.82085 10.463C7.82085 8.53683 9.33501 6.97535 11.2028 6.97535C13.0707 6.97535 14.5848 8.53683 14.5848 10.463Z" fill="#63CCCF"/>
<path d="M28.5355 10.463C28.5355 12.3892 26.974 13.9507 25.0478 13.9507C23.1217 13.9507 21.5602 12.3892 21.5602 10.463C21.5602 8.53683 23.1217 6.97535 25.0478 6.97535C26.974 6.97535 28.5355 8.53683 28.5355 10.463Z" fill="#63CCCF"/>
<path d="M45.6568 10.463C45.6568 12.3892 44.0953 13.9507 42.1692 13.9507C40.243 13.9507 38.6815 12.3892 38.6815 10.463C38.6815 8.53683 40.243 6.97535 42.1692 6.97535C44.0953 6.97535 45.6568 8.53683 45.6568 10.463Z" fill="#63CCCF"/>
<path d="M58.762 10.463C58.762 12.3892 57.2006 13.9507 55.2744 13.9507C53.3482 13.9507 51.7867 12.3892 51.7867 10.463C51.7867 8.53683 53.3482 6.97535 55.2744 6.97535C57.2006 6.97535 58.762 8.53683 58.762 10.463Z" fill="#63CCCF"/>
<path d="M3.80474 40.5839C3.80474 41.6345 2.95302 42.4862 1.90237 42.4862C0.851719 42.4862 0 41.6345 0 40.5839C0 39.5332 0.851719 38.6815 1.90237 38.6815C2.95302 38.6815 3.80474 39.5332 3.80474 40.5839Z" fill="#63CCCF"/>
<path d="M14.5848 25.0478C14.5848 26.974 13.0707 28.5355 11.2028 28.5355C9.33501 28.5355 7.82085 26.974 7.82085 25.0478C7.82085 23.1217 9.33501 21.5602 11.2028 21.5602C13.0707 21.5602 14.5848 23.1217 14.5848 25.0478Z" fill="#63CCCF"/>
<path d="M3.80474 25.1535C3.80474 26.2042 2.95302 27.0559 1.90237 27.0559C0.851719 27.0559 0 26.2042 0 25.1535C0 24.1029 0.851719 23.2512 1.90237 23.2512C2.95302 23.2512 3.80474 24.1029 3.80474 25.1535Z" fill="#63CCCF"/>
<path d="M27.0559 1.90237C27.0559 2.95302 26.2042 3.80474 25.1535 3.80474C24.1029 3.80474 23.2512 2.95302 23.2512 1.90237C23.2512 0.851719 24.1029 0 25.1535 0C26.2042 0 27.0559 0.851719 27.0559 1.90237Z" fill="#63CCCF"/>
<path d="M43.9658 1.90237C43.9658 2.95302 43.1141 3.80474 42.0635 3.80474C41.0128 3.80474 40.1611 2.95302 40.1611 1.90237C40.1611 0.851719 41.0128 0 42.0635 0C43.1141 0 43.9658 0.851719 43.9658 1.90237Z" fill="#63CCCF"/>
<path d="M27.0559 62.9895C27.0559 64.0402 26.2042 64.8919 25.1535 64.8919C24.1029 64.8919 23.2512 64.0402 23.2512 62.9895C23.2512 61.9389 24.1029 61.0872 25.1535 61.0872C26.2042 61.0872 27.0559 61.9389 27.0559 62.9895Z" fill="#63CCCF"/>
<path d="M51.7867 25.0478C51.7867 26.974 53.3482 28.5355 55.2744 28.5355C57.2006 28.5355 58.762 26.974 58.762 25.0478C58.762 23.1217 57.2006 21.5602 55.2744 21.5602C53.3482 21.5602 51.7867 23.1217 51.7867 25.0478Z" fill="#63CCCF"/>
<path d="M61.0872 25.1535C61.0872 26.2042 61.9389 27.0559 62.9895 27.0559C64.0402 27.0559 64.8919 26.2042 64.8919 25.1535C64.8919 24.1029 64.0402 23.2512 62.9895 23.2512C61.9389 23.2512 61.0872 24.1029 61.0872 25.1535Z" fill="#63CCCF"/>
</svg>
